<?xml version="1.0" encoding="utf-8"?>
<!-- Svg Vector Icons : http://www.onlinewebfonts.com/icon -->
<!DOCTYPE svg PUBLIC "-//W3C//DTD SVG 1.1//EN" "http://www.w3.org/Graphics/SVG/1.1/DTD/svg11.dtd">
<svg version="1.1" xmlns="http://www.w3.org/2000/svg" xmlns:xlink="http://www.w3.org/1999/xlink" x="0px" y="0px" viewBox="0 0 1000 1000" enable-background="new 0 0 1000 1000" xml:space="preserve">
<metadata> Svg Vector Icons : http://www.onlinewebfonts.com/icon </metadata>
<g><path d="M407.5,561.2h391.4c29.7,3.8,58.5-14.7,66.7-44.4l122.3-245.4c9-32.6-10.2-66.2-42.7-75.2c-7.4-2-14.9-2.6-22.1-1.9H292.5L279,118.2c-4.9-27.7-31.2-45.7-60.7-44.7v-1.5H71.2C37.4,71.9,10,99.3,10,133.1s27.4,61.2,61.2,61.2h43.9v0.2c0.3,0,0.6-0.2,1-0.2c34,0,61.4,27.3,61.9,61.2h1.1l70.9,402.1c-34.2,28-56.4,70.1-56.4,117.7c0,84.4,68.4,152.9,152.9,152.9c84.4,0,152.9-68.4,152.9-152.9c0-10.5-1.1-20.7-3.1-30.6h128.5c-2,9.9-3.1,20.1-3.1,30.6c0,84.4,68.4,152.9,152.9,152.9c84.4,0,152.9-68.4,152.9-152.9s-68.4-152.9-152.9-152.9H407.5c-16.9,0-30.6-13.7-30.6-30.6C376.9,574.8,390.6,561.2,407.5,561.2z M774.4,744.6c16.9,0,30.6,13.7,30.6,30.6c0,16.9-13.7,30.6-30.6,30.6c-16.9,0-30.6-13.7-30.6-30.6C743.8,758.3,757.5,744.6,774.4,744.6z M346.3,805.8c-16.9,0-30.6-13.7-30.6-30.6c0-16.9,13.7-30.6,30.6-30.6s30.6,13.7,30.6,30.6C376.9,792.1,363.2,805.8,346.3,805.8z"/></g>
</svg>