<svg xmlns="http://www.w3.org/2000/svg" viewBox="0 0 127.84 64"><path d="M89.48,51.11a1,1,0,0,0-.71-.21.88.88,0,0,0-.68.21,1.51,1.51,0,0,0-.25.85v4.73a1.51,1.51,0,0,0,.25.85.88.88,0,0,0,.68.21,1,1,0,0,0,.71-.21,1.51,1.51,0,0,0,.25-.85V52A1.51,1.51,0,0,0,89.48,51.11Z" style="fill:#fff"/><path d="M37.09,19.13A5,5,0,0,0,32,24v7.09a5.1,5.1,0,0,0,10.19,0v-7a5,5,0,0,0-5-5Z" style="fill:#fff"/><path d="M105.46,51.21a.9.9,0,0,0-.67-.19,1,1,0,0,0-.61.18,1.09,1.09,0,0,0-.3.66,6.73,6.73,0,0,0-.07,1v1.48a20.33,20.33,0,0,0,.08,2.34,1.38,1.38,0,0,0,.31.77.87.87,0,0,0,.6.2,1,1,0,0,0,.67-.19,1.49,1.49,0,0,0,.25-.82c0-.42.06-1.19.06-2.3a21.29,21.29,0,0,0-.06-2.29A1.49,1.49,0,0,0,105.46,51.21Z" style="fill:#fff"/><path d="M81.62,29.21a1,1,0,0,0-.68-.19.91.91,0,0,0-.6.18,1.09,1.09,0,0,0-.3.66,6.73,6.73,0,0,0-.07,1v1.48a22.45,22.45,0,0,0,0,2.32,1.38,1.38,0,0,0,.31.77.83.83,0,0,0,.59.2,1,1,0,0,0,.68-.19,1.49,1.49,0,0,0,.25-.82c0-.42.06-1.19.06-2.3A21.29,21.29,0,0,0,81.83,30,1.48,1.48,0,0,0,81.62,29.21Z" style="fill:#fff"/><path d="M89.31,9.32a14.8,14.8,0,0,0-.06-1.63A1,1,0,0,0,89,7.05a1,1,0,0,0-.62-.15,1,1,0,0,0-.64.15,1.11,1.11,0,0,0-.27.67,13.73,13.73,0,0,0-.07,1.7h1.91Z" style="fill:#fff"/><path d="M52,19.13A5,5,0,0,0,46.9,24v7.1a5.1,5.1,0,0,0,10.19,0v-7a5,5,0,0,0-5-5Z" style="fill:#fff"/><path d="M97.47,51.21a.92.92,0,0,0-.68-.19.91.91,0,0,0-.6.18,1,1,0,0,0-.3.66,5.61,5.61,0,0,0-.07,1v1.48a18.3,18.3,0,0,0,.08,2.34,1.38,1.38,0,0,0,.31.77.83.83,0,0,0,.59.2,1,1,0,0,0,.68-.19,1.48,1.48,0,0,0,.24-.82c0-.42.06-1.19.06-2.3a21.29,21.29,0,0,0-.06-2.29A1.41,1.41,0,0,0,97.47,51.21Z" style="fill:#fff"/><path d="M125.14,51.23a.82.82,0,0,0-.61-.21,1,1,0,0,0-.67.18,1.34,1.34,0,0,0-.26.8c0,.42-.06,1.15-.06,2.2a20.94,20.94,0,0,0,.06,2.24,1.46,1.46,0,0,0,.25.81,1,1,0,0,0,.68.17.86.86,0,0,0,.6-.17,1.19,1.19,0,0,0,.28-.65,6.74,6.74,0,0,0,.08-1V54.15a17.82,17.82,0,0,0-.08-2.19A1.39,1.39,0,0,0,125.14,51.23Z" style="fill:#fff"/><path d="M111.19,29.11a1,1,0,0,0-.71-.21.88.88,0,0,0-.68.21,1.44,1.44,0,0,0-.25.85v4.73a1.44,1.44,0,0,0,.25.85.88.88,0,0,0,.68.21,1,1,0,0,0,.71-.21,1.51,1.51,0,0,0,.25-.85V30A1.51,1.51,0,0,0,111.19,29.11Z" style="fill:#fff"/><path d="M40,0C26.8,0,16,10.5,16,23.39v9.25a8,8,0,0,1-8,7.84,7.91,7.91,0,0,1-8-7.57C.14,50.05,14.43,64,32,64S64,50,64,32.77V23.39C64,10.5,53.24,0,40,0Zm2.16,31.06a5.1,5.1,0,0,1-10.19,0v-7a5.1,5.1,0,0,1,10.19,0Zm14.93,0a5.1,5.1,0,0,1-10.19,0v-7a5.1,5.1,0,0,1,10.19,0Z" style="fill:#fff"/><polygon points="71.64 15.55 74.12 15.55 74.12 3.72 76.31 3.72 76.31 1.45 69.44 1.45 69.44 3.72 71.64 3.72 71.64 15.55" style="fill:#fff"/><path d="M79.57,10.3V8.16a1.65,1.65,0,0,1,.24-.87A.77.77,0,0,1,80.53,7a1,1,0,0,1,.63.16,1.08,1.08,0,0,1,.22.67q.06.53.06,1.86v5.84h2.31v-7a11.37,11.37,0,0,0-.15-2.18A1.92,1.92,0,0,0,83,5.29a2,2,0,0,0-1.31-.36,1.82,1.82,0,0,0-2,1.36h-.16v-6H77.25V15.55h2.32Z" style="fill:#fff"/><path d="M86.2,15.18a4,4,0,0,0,2.31.54A12.29,12.29,0,0,0,90,15.63a8.79,8.79,0,0,0,1.25-.2V13.6c-1,.1-1.78.15-2.26.15a2.39,2.39,0,0,1-1.12-.19,1,1,0,0,1-.41-.7A11.57,11.57,0,0,1,87.4,11h4.08v-.7A26,26,0,0,0,91.33,7a2.31,2.31,0,0,0-.8-1.54,3.38,3.38,0,0,0-2.12-.52,3.59,3.59,0,0,0-2.23.56,2.55,2.55,0,0,0-.9,1.63,19.28,19.28,0,0,0-.2,3.22,19.4,19.4,0,0,0,.2,3.23A2.4,2.4,0,0,0,86.2,15.18Zm1.27-7.46a1.11,1.11,0,0,1,.27-.67,1,1,0,0,1,.64-.15,1,1,0,0,1,.62.15,1,1,0,0,1,.25.64,14.8,14.8,0,0,1,.06,1.63v.1H87.4A13.73,13.73,0,0,1,87.47,7.72Z" style="fill:#fff"/><path d="M75.52,29.86a2.79,2.79,0,0,0-1-.43l-1.42-.32a1.19,1.19,0,0,1-.53-.23.83.83,0,0,1-.22-.46,8.34,8.34,0,0,1,0-1,7.37,7.37,0,0,1,0-.94,1.13,1.13,0,0,1,.22-.53.89.89,0,0,1,.52-.3,4.19,4.19,0,0,1,1-.09,8.47,8.47,0,0,1,1.15.05,6.39,6.39,0,0,1,.75.09V23.61a6.17,6.17,0,0,0-.95-.2,9.33,9.33,0,0,0-1.67-.13,4.72,4.72,0,0,0-2,.35,2.38,2.38,0,0,0-1.18,1.26,6.47,6.47,0,0,0-.41,2.58,9.25,9.25,0,0,0,.29,2.62,1.41,1.41,0,0,0,1.06,1.07l1.64.34a2.38,2.38,0,0,1,.82.3.89.89,0,0,1,.3.54A7.81,7.81,0,0,1,74,33.62a2.63,2.63,0,0,1-.28,1.51,1,1,0,0,1-.5.28,3.69,3.69,0,0,1-.88.07A15.54,15.54,0,0,1,70,35.34v2a8.74,8.74,0,0,0,1.43.25c.52.06,1,.09,1.56.1a4.72,4.72,0,0,0,2-.35A2.33,2.33,0,0,0,76,36a8.32,8.32,0,0,0,.38-2.85,8.19,8.19,0,0,0-.22-2.26A2.1,2.1,0,0,0,75.52,29.86Z" style="fill:#fff"/><path d="M83.33,27.38a2.39,2.39,0,0,0-2.59-.13,1.63,1.63,0,0,0-.66,1.1h-.16l-.08-1.25h-2.2V41.57H80V36.4h.16A1.65,1.65,0,0,0,82,37.72a2,2,0,0,0,1.45-.49,2.84,2.84,0,0,0,.68-1.62,22.6,22.6,0,0,0,.18-3.29A20.57,20.57,0,0,0,84,29,2.76,2.76,0,0,0,83.33,27.38Zm-1.46,7.24a1.49,1.49,0,0,1-.25.82,1,1,0,0,1-.68.19.83.83,0,0,1-.59-.2,1.38,1.38,0,0,1-.31-.77,20.31,20.31,0,0,1,0-2.34V30.84a6.73,6.73,0,0,1,.07-1,1.09,1.09,0,0,1,.3-.66A.91.91,0,0,1,81,29a1,1,0,0,1,.68.19,1.42,1.42,0,0,1,.25.82c0,.42.06,1.19.06,2.29S81.91,34.2,81.87,34.62Z" style="fill:#fff"/><rect x="85.62" y="22.32" width="2.36" height="2.32" style="fill:#fff"/><rect x="85.64" y="27.1" width="2.32" height="10.46" style="fill:#fff"/><path d="M94.08,26.93a2,2,0,0,0-1.33.41,2.84,2.84,0,0,0-.76,1.5h-.16l-.08-1.74h-2.2V37.55h2.32V32.47a4,4,0,0,1,.53-2.39,2,2,0,0,1,1.68-.67Z" style="fill:#fff"/><rect x="95.11" y="27.1" width="2.32" height="10.46" style="fill:#fff"/><rect x="95.09" y="22.32" width="2.36" height="2.32" style="fill:#fff"/><polygon points="99.54 37.55 101.85 37.55 101.85 29.07 103.27 29.07 103.27 27.1 101.85 27.1 101.85 24.06 99.54 24.06 99.54 27.1 98.49 27.1 98.49 29.07 99.54 29.07 99.54 37.55" style="fill:#fff"/><path d="M113.8,32.32a20.6,20.6,0,0,0-.2-3.42,2.21,2.21,0,0,0-.89-1.52,4.21,4.21,0,0,0-2.23-.45,4.1,4.1,0,0,0-2.2.45,2.19,2.19,0,0,0-.89,1.53,19.47,19.47,0,0,0-.21,3.41,19.81,19.81,0,0,0,.21,3.44,2.17,2.17,0,0,0,.89,1.52,5.8,5.8,0,0,0,4.43,0,2.17,2.17,0,0,0,.89-1.52A20.84,20.84,0,0,0,113.8,32.32Zm-2.36,2.37a1.51,1.51,0,0,1-.25.85,1,1,0,0,1-.71.21.88.88,0,0,1-.68-.21,1.44,1.44,0,0,1-.25-.85V30a1.44,1.44,0,0,1,.25-.85.88.88,0,0,1,.68-.21,1,1,0,0,1,.71.21,1.51,1.51,0,0,1,.25.85v2.36C111.44,33.46,111.47,34.26,111.44,34.69Z" style="fill:#fff"/><path d="M115.71,37.55H118V29.06h1.43v-2H118V25.72a4.21,4.21,0,0,1,.1-1.12.61.61,0,0,1,.38-.43,2.78,2.78,0,0,1,1-.11V22.32a8.43,8.43,0,0,0-2.45.24,1.56,1.56,0,0,0-1,1,9.23,9.23,0,0,0-.29,2.72v.78h-1v2h1Z" style="fill:#fff"/><path d="M75.52,51.86a2.79,2.79,0,0,0-1-.43l-1.42-.32a1.19,1.19,0,0,1-.53-.23.8.8,0,0,1-.22-.46,8.34,8.34,0,0,1,0-1,7.37,7.37,0,0,1,0-.94,1.13,1.13,0,0,1,.22-.53.89.89,0,0,1,.52-.3,4.19,4.19,0,0,1,1-.09h1.15a6.39,6.39,0,0,1,.75.09v-2a6.17,6.17,0,0,0-.95-.2,10.35,10.35,0,0,0-1.67-.13,4.72,4.72,0,0,0-2,.35,2.46,2.46,0,0,0-1.18,1.26,6.47,6.47,0,0,0-.41,2.58,9.25,9.25,0,0,0,.29,2.62,1.41,1.41,0,0,0,1.06,1.07l1.64.34a2.38,2.38,0,0,1,.82.3.89.89,0,0,1,.3.54A7.33,7.33,0,0,1,74,55.62a2.63,2.63,0,0,1-.28,1.51,1,1,0,0,1-.5.28,3.69,3.69,0,0,1-.88.07A15.54,15.54,0,0,1,70,57.34v2a8.74,8.74,0,0,0,1.43.25c.52.06,1,.09,1.56.1a4.72,4.72,0,0,0,2-.35A2.33,2.33,0,0,0,76,58a8.32,8.32,0,0,0,.38-2.85,8.19,8.19,0,0,0-.22-2.26A2.1,2.1,0,0,0,75.52,51.86Z" style="fill:#fff"/><path d="M83.4,49.29a2,2,0,0,0-1.31-.36,1.82,1.82,0,0,0-2,1.36H80v-6H77.64V59.55H80V52.16a1.65,1.65,0,0,1,.24-.87.77.77,0,0,1,.68-.27,1,1,0,0,1,.63.16,1.08,1.08,0,0,1,.22.67q.06.52.06,1.86v5.84h2.31V52.6A12.23,12.23,0,0,0,84,50.42,1.88,1.88,0,0,0,83.4,49.29Z" style="fill:#fff"/><path d="M91,49.38a4.21,4.21,0,0,0-2.23-.45,4.1,4.1,0,0,0-2.2.45,2.19,2.19,0,0,0-.89,1.53,19.47,19.47,0,0,0-.21,3.41,19.81,19.81,0,0,0,.21,3.44,2.17,2.17,0,0,0,.89,1.52,5.8,5.8,0,0,0,4.43,0,2.17,2.17,0,0,0,.89-1.52,19.81,19.81,0,0,0,.21-3.44,19.58,19.58,0,0,0-.21-3.42A2.21,2.21,0,0,0,91,49.38Zm-1.27,7.31a1.51,1.51,0,0,1-.25.85,1,1,0,0,1-.71.21.88.88,0,0,1-.68-.21,1.51,1.51,0,0,1-.25-.85V52a1.51,1.51,0,0,1,.25-.85.88.88,0,0,1,.68-.21,1,1,0,0,1,.71.21,1.51,1.51,0,0,1,.25.85v2.36C89.73,55.46,89.76,56.26,89.73,56.69Z" style="fill:#fff"/><path d="M99.18,49.38a2.4,2.4,0,0,0-2.6-.13,1.68,1.68,0,0,0-.65,1.1h-.16l-.09-1.25H93.49V63.57h2.32V58.4H96a1.66,1.66,0,0,0,1.8,1.32,2,2,0,0,0,1.46-.49,2.87,2.87,0,0,0,.68-1.62,22.6,22.6,0,0,0,.18-3.29,22.08,22.08,0,0,0-.2-3.35A2.8,2.8,0,0,0,99.18,49.38Zm-1.47,7.24a1.48,1.48,0,0,1-.24.82,1,1,0,0,1-.68.19.83.83,0,0,1-.59-.2,1.38,1.38,0,0,1-.31-.77,18.3,18.3,0,0,1-.08-2.34V52.84a5.61,5.61,0,0,1,.07-1,1,1,0,0,1,.3-.66.91.91,0,0,1,.6-.18.92.92,0,0,1,.68.19,1.41,1.41,0,0,1,.24.82c0,.42.06,1.19.06,2.29S97.75,56.2,97.71,56.62Z" style="fill:#fff"/><path d="M107.17,49.38a2.39,2.39,0,0,0-2.59-.13,1.63,1.63,0,0,0-.66,1.1h-.16l-.08-1.25h-2.19V63.57h2.31V58.4h.2a1.64,1.64,0,0,0,1.8,1.32,2,2,0,0,0,1.45-.49,2.84,2.84,0,0,0,.68-1.62,22.61,22.61,0,0,0,.19-3.29,20.87,20.87,0,0,0-.21-3.35A2.77,2.77,0,0,0,107.17,49.38Zm-1.46,7.24a1.49,1.49,0,0,1-.25.82,1,1,0,0,1-.67.19.87.87,0,0,1-.6-.2,1.38,1.38,0,0,1-.31-.77,20.33,20.33,0,0,1-.08-2.34V52.84a6.73,6.73,0,0,1,.07-1,1.09,1.09,0,0,1,.3-.66,1,1,0,0,1,.61-.18.9.9,0,0,1,.67.19,1.42,1.42,0,0,1,.25.82c0,.42.06,1.19.06,2.29S105.75,56.2,105.71,56.62Z" style="fill:#fff"/><rect x="109.46" y="44.32" width="2.36" height="2.32" style="fill:#fff"/><rect x="109.48" y="49.1" width="2.32" height="10.46" style="fill:#fff"/><path d="M119.16,49.29a2,2,0,0,0-1.32-.36,1.89,1.89,0,0,0-2,1.44h-.16l-.08-1.27h-2.2V59.55h2.31V52.16a1.65,1.65,0,0,1,.24-.87.77.77,0,0,1,.68-.27,1,1,0,0,1,.63.16,1.09,1.09,0,0,1,.23.67v7.7h2.31V52.6a11.37,11.37,0,0,0-.15-2.18A2,2,0,0,0,119.16,49.29Z" style="fill:#fff"/><path d="M125.63,49.1l-.08,1.25h-.14a1.7,1.7,0,0,0-.68-1.1,2,2,0,0,0-1.15-.32,2.13,2.13,0,0,0-1.44.44,2.7,2.7,0,0,0-.71,1.56,18.84,18.84,0,0,0-.2,3.27,20.52,20.52,0,0,0,.19,3.23,3,3,0,0,0,.68,1.6,2.38,2.38,0,0,0,2.64.15,1.75,1.75,0,0,0,.63-1h.14V59a14.17,14.17,0,0,1-.09,1.84,1,1,0,0,1-.44.73,2.48,2.48,0,0,1-1.17.2h-2.09V63.6a19.1,19.1,0,0,0,2.62.16,3.85,3.85,0,0,0,2.34-.56,2.58,2.58,0,0,0,.94-1.65,18.51,18.51,0,0,0,.21-3.24V49.1Zm-.14,6.55a6.74,6.74,0,0,1-.08,1,1.19,1.19,0,0,1-.28.65.86.86,0,0,1-.6.17,1,1,0,0,1-.68-.17,1.46,1.46,0,0,1-.25-.81c0-.43-.06-1.17-.06-2.24a19.78,19.78,0,0,1,.06-2.2,1.34,1.34,0,0,1,.26-.8,1,1,0,0,1,.67-.18.82.82,0,0,1,.61.21,1.49,1.49,0,0,1,.29.78,17.82,17.82,0,0,1,.08,2.19C125.51,54.75,125.5,55.23,125.49,55.65Z" style="fill:#fff"/></svg>