<svg xmlns="http://www.w3.org/2000/svg" viewBox="0 0 127.83 64"><path d="M89.48,51.11a.94.94,0,0,0-.71-.21.91.91,0,0,0-.68.21,1.49,1.49,0,0,0-.25.85c0,.43,0,1.22,0,2.36s0,1.94,0,2.37a1.49,1.49,0,0,0,.25.85.91.91,0,0,0,.68.21.94.94,0,0,0,.71-.21,1.49,1.49,0,0,0,.25-.85c0-.43,0-1.22,0-2.37s0-1.93,0-2.36A1.49,1.49,0,0,0,89.48,51.11Z" style="fill:none"/><path d="M37.09,19.13a5,5,0,0,0-5.09,5v7a5.1,5.1,0,0,0,10.19,0v-7A5,5,0,0,0,37.09,19.13Z" style="fill:none"/><path d="M105.46,51.21a.91.91,0,0,0-.67-.19.92.92,0,0,0-.61.18,1.1,1.1,0,0,0-.3.66,7,7,0,0,0-.07,1c0,.43,0,.92,0,1.48a20.27,20.27,0,0,0,.08,2.34,1.43,1.43,0,0,0,.31.77.85.85,0,0,0,.6.2,1,1,0,0,0,.67-.19,1.45,1.45,0,0,0,.25-.82c0-.42.06-1.19.06-2.3s0-1.87-.06-2.29A1.42,1.42,0,0,0,105.46,51.21Z" style="fill:none"/><path d="M81.62,29.21a1,1,0,0,0-.68-.19.9.9,0,0,0-.6.18,1.1,1.1,0,0,0-.3.66,7,7,0,0,0-.07,1c0,.43,0,.92,0,1.48A20.27,20.27,0,0,0,80,34.66a1.43,1.43,0,0,0,.31.77.83.83,0,0,0,.59.2,1,1,0,0,0,.68-.19,1.45,1.45,0,0,0,.25-.82c0-.42.06-1.19.06-2.3s0-1.87-.06-2.29A1.42,1.42,0,0,0,81.62,29.21Z" style="fill:none"/><path d="M89.31,9.32a15,15,0,0,0-.06-1.63A1,1,0,0,0,89,7.05a1,1,0,0,0-.62-.15,1.06,1.06,0,0,0-.64.15,1.08,1.08,0,0,0-.27.67,13.56,13.56,0,0,0-.07,1.7h1.91Z" style="fill:none"/><path d="M52,19.13a5,5,0,0,0-5.1,5v7a5.1,5.1,0,0,0,10.19,0v-7A5,5,0,0,0,52,19.13Z" style="fill:none"/><path d="M97.47,51.21a.94.94,0,0,0-.68-.19.9.9,0,0,0-.6.18,1,1,0,0,0-.3.66,5.73,5.73,0,0,0-.07,1c0,.43,0,.92,0,1.48a18.08,18.08,0,0,0,.08,2.34,1.43,1.43,0,0,0,.31.77.81.81,0,0,0,.59.2,1,1,0,0,0,.68-.19,1.46,1.46,0,0,0,.24-.82c0-.42.06-1.19.06-2.3s0-1.87-.06-2.29A1.43,1.43,0,0,0,97.47,51.21Z" style="fill:none"/><path d="M125.14,51.23a.82.82,0,0,0-.61-.21,1,1,0,0,0-.67.18,1.33,1.33,0,0,0-.26.8c0,.42-.06,1.15-.06,2.2s0,1.81.06,2.24a1.49,1.49,0,0,0,.25.81,1,1,0,0,0,.68.17.91.91,0,0,0,.6-.17,1.2,1.2,0,0,0,.28-.65,6.48,6.48,0,0,0,.08-1c0-.42,0-.9,0-1.45a18,18,0,0,0-.08-2.19A1.44,1.44,0,0,0,125.14,51.23Z" style="fill:none"/><path d="M111.19,29.11a.94.94,0,0,0-.71-.21.91.91,0,0,0-.68.21,1.42,1.42,0,0,0-.25.85c0,.43,0,1.22,0,2.36s0,1.94,0,2.37a1.42,1.42,0,0,0,.25.85.91.91,0,0,0,.68.21.94.94,0,0,0,.71-.21,1.49,1.49,0,0,0,.25-.85c0-.43,0-1.22,0-2.37s0-1.93,0-2.36A1.49,1.49,0,0,0,111.19,29.11Z" style="fill:none"/><path d="M40,0c-13.2,0-24,10.5-24,23.39v9.25a8,8,0,0,1-8,7.84,7.91,7.91,0,0,1-8-7.57C.14,50.05,14.43,64,32,64s32-14,32-31.23V23.39C64,10.5,53.24,0,40,0Zm2.16,31.06a5.1,5.1,0,0,1-10.19,0v-7a5.1,5.1,0,0,1,10.19,0Zm14.93,0a5.1,5.1,0,0,1-10.19,0v-7a5.1,5.1,0,0,1,10.19,0Z"/><polygon points="71.64 15.55 74.12 15.55 74.12 3.72 76.31 3.72 76.31 1.45 69.44 1.45 69.44 3.72 71.64 3.72 71.64 15.55"/><path d="M79.57,10.3c0-1,0-1.74,0-2.14a1.74,1.74,0,0,1,.24-.87A.79.79,0,0,1,80.53,7a1,1,0,0,1,.63.16,1.08,1.08,0,0,1,.22.67q.06.53.06,1.86v5.84h2.31v-7a12.08,12.08,0,0,0-.15-2.18A1.89,1.89,0,0,0,83,5.29a2,2,0,0,0-1.31-.36,1.82,1.82,0,0,0-2,1.36h-.16v-6H77.25V15.55h2.32Z"/><path d="M86.2,15.18a3.93,3.93,0,0,0,2.31.54A13.3,13.3,0,0,0,90,15.63a8.86,8.86,0,0,0,1.25-.2V13.6c-1,.1-1.78.15-2.26.15a2.34,2.34,0,0,1-1.12-.19,1,1,0,0,1-.41-.7A12.59,12.59,0,0,1,87.4,11h4.08v-.7A26,26,0,0,0,91.33,7a2.33,2.33,0,0,0-.8-1.54,3.38,3.38,0,0,0-2.12-.52,3.6,3.6,0,0,0-2.23.56,2.56,2.56,0,0,0-.9,1.63,19.39,19.39,0,0,0-.2,3.22,19.44,19.44,0,0,0,.2,3.23A2.43,2.43,0,0,0,86.2,15.18Zm1.27-7.46a1.08,1.08,0,0,1,.27-.67,1.06,1.06,0,0,1,.64-.15,1,1,0,0,1,.62.15,1,1,0,0,1,.25.64,15,15,0,0,1,.06,1.63v.1H87.4A13.56,13.56,0,0,1,87.47,7.72Z"/><path d="M75.52,29.86a2.79,2.79,0,0,0-1-.43l-1.42-.32a1.25,1.25,0,0,1-.53-.23.8.8,0,0,1-.22-.46,8.11,8.11,0,0,1,0-1,7.22,7.22,0,0,1,0-.94,1.12,1.12,0,0,1,.22-.53.91.91,0,0,1,.52-.3,4.44,4.44,0,0,1,1-.09c.41,0,.79,0,1.15.05a6.29,6.29,0,0,1,.75.09V23.61a6.17,6.17,0,0,0-.95-.2,9.52,9.52,0,0,0-1.67-.13,4.84,4.84,0,0,0-2,.35,2.4,2.4,0,0,0-1.18,1.26,6.55,6.55,0,0,0-.41,2.58,9.18,9.18,0,0,0,.29,2.62,1.41,1.41,0,0,0,1.06,1.07l1.64.34a2.36,2.36,0,0,1,.82.3.9.9,0,0,1,.3.54A7.54,7.54,0,0,1,74,33.62a2.65,2.65,0,0,1-.28,1.51,1,1,0,0,1-.5.28,4,4,0,0,1-.88.07c-.54,0-1.32,0-2.31-.14v2a8.9,8.9,0,0,0,1.43.25,14.86,14.86,0,0,0,1.56.1,4.65,4.65,0,0,0,2-.35A2.34,2.34,0,0,0,76,36a8.14,8.14,0,0,0,.38-2.85,8.36,8.36,0,0,0-.22-2.26A2.12,2.12,0,0,0,75.52,29.86Z"/><path d="M83.33,27.38a2.39,2.39,0,0,0-2.59-.13,1.63,1.63,0,0,0-.66,1.1h-.16l-.08-1.25h-2.2V41.57H80V36.4h.16a1.65,1.65,0,0,0,1.81,1.32,2,2,0,0,0,1.45-.49,2.84,2.84,0,0,0,.68-1.62,22.45,22.45,0,0,0,.18-3.29A20.15,20.15,0,0,0,84,29,2.74,2.74,0,0,0,83.33,27.38Zm-1.46,7.24a1.45,1.45,0,0,1-.25.82,1,1,0,0,1-.68.19.83.83,0,0,1-.59-.2,1.43,1.43,0,0,1-.31-.77A20.27,20.27,0,0,1,80,32.32c0-.56,0-1.05,0-1.48a7,7,0,0,1,.07-1,1.1,1.1,0,0,1,.3-.66.9.9,0,0,1,.6-.18,1,1,0,0,1,.68.19,1.42,1.42,0,0,1,.25.82c0,.42.06,1.19.06,2.29S81.91,34.2,81.87,34.62Z"/><rect x="85.62" y="22.32" width="2.36" height="2.32"/><rect x="85.64" y="27.1" width="2.32" height="10.46"/><path d="M94.08,26.93a2,2,0,0,0-1.33.41,2.84,2.84,0,0,0-.76,1.5h-.16l-.08-1.74h-2.2V37.55h2.32V32.47a4,4,0,0,1,.53-2.39,2,2,0,0,1,1.68-.67Z"/><rect x="95.11" y="27.1" width="2.32" height="10.46"/><rect x="95.09" y="22.32" width="2.36" height="2.32"/><polygon points="99.54 37.55 101.85 37.55 101.85 29.07 103.27 29.07 103.27 27.1 101.85 27.1 101.85 24.06 99.54 24.06 99.54 27.1 98.49 27.1 98.49 29.07 99.54 29.07 99.54 37.55"/><path d="M113.8,32.32a19.92,19.92,0,0,0-.2-3.42,2.22,2.22,0,0,0-.89-1.52,4.21,4.21,0,0,0-2.23-.45,4.13,4.13,0,0,0-2.2.45,2.18,2.18,0,0,0-.89,1.53,19.77,19.77,0,0,0-.21,3.41,19.94,19.94,0,0,0,.21,3.44,2.16,2.16,0,0,0,.89,1.52,4.24,4.24,0,0,0,2.2.44,4.32,4.32,0,0,0,2.23-.44,2.2,2.2,0,0,0,.89-1.52A20.19,20.19,0,0,0,113.8,32.32Zm-2.36,2.37a1.49,1.49,0,0,1-.25.85.94.94,0,0,1-.71.21.91.91,0,0,1-.68-.21,1.42,1.42,0,0,1-.25-.85c0-.43,0-1.22,0-2.37s0-1.93,0-2.36a1.42,1.42,0,0,1,.25-.85.91.91,0,0,1,.68-.21.94.94,0,0,1,.71.21,1.49,1.49,0,0,1,.25.85c0,.43,0,1.22,0,2.36S111.47,34.26,111.44,34.69Z"/><path d="M115.71,37.55H118V29.06h1.43v-2H118V25.72a4.13,4.13,0,0,1,.1-1.12.62.62,0,0,1,.38-.43,2.93,2.93,0,0,1,.95-.11V22.32a8.74,8.74,0,0,0-2.45.24,1.55,1.55,0,0,0-1,1,9.07,9.07,0,0,0-.29,2.72v.78h-1v2h1Z"/><path d="M75.52,51.86a2.79,2.79,0,0,0-1-.43l-1.42-.32a1.25,1.25,0,0,1-.53-.23.77.77,0,0,1-.22-.46,8.11,8.11,0,0,1,0-1,7.22,7.22,0,0,1,0-.94,1.12,1.12,0,0,1,.22-.53.91.91,0,0,1,.52-.3,4.44,4.44,0,0,1,1-.09c.41,0,.79,0,1.15,0a6.29,6.29,0,0,1,.75.09v-2a6.17,6.17,0,0,0-.95-.2,10.59,10.59,0,0,0-1.67-.13,4.84,4.84,0,0,0-2,.35,2.43,2.43,0,0,0-1.18,1.26,6.55,6.55,0,0,0-.41,2.58,9.18,9.18,0,0,0,.29,2.62,1.41,1.41,0,0,0,1.06,1.07l1.64.34a2.36,2.36,0,0,1,.82.3.9.9,0,0,1,.3.54A7.54,7.54,0,0,1,74,55.62a2.65,2.65,0,0,1-.28,1.51,1,1,0,0,1-.5.28,4,4,0,0,1-.88.07c-.54,0-1.32,0-2.31-.14v2a8.9,8.9,0,0,0,1.43.25,14.86,14.86,0,0,0,1.56.1,4.65,4.65,0,0,0,2-.35A2.34,2.34,0,0,0,76,58a8.14,8.14,0,0,0,.38-2.85,8.36,8.36,0,0,0-.22-2.26A2.12,2.12,0,0,0,75.52,51.86Z"/><path d="M83.4,49.29a2,2,0,0,0-1.31-.36,1.82,1.82,0,0,0-2,1.36H80v-6H77.64V59.55H80V54.3c0-1,0-1.74,0-2.14a1.74,1.74,0,0,1,.24-.87.79.79,0,0,1,.68-.27,1,1,0,0,1,.63.16,1.08,1.08,0,0,1,.22.67q.06.52.06,1.86v5.84h2.31V52.6A12.08,12.08,0,0,0,84,50.42,1.89,1.89,0,0,0,83.4,49.29Z"/><path d="M91,49.38a4.21,4.21,0,0,0-2.23-.45,4.13,4.13,0,0,0-2.2.45,2.22,2.22,0,0,0-.89,1.53,19.77,19.77,0,0,0-.21,3.41,19.94,19.94,0,0,0,.21,3.44,2.2,2.2,0,0,0,.89,1.52,4.24,4.24,0,0,0,2.2.44A4.32,4.32,0,0,0,91,59.28a2.2,2.2,0,0,0,.89-1.52,19.94,19.94,0,0,0,.21-3.44,19.67,19.67,0,0,0-.21-3.42A2.22,2.22,0,0,0,91,49.38Zm-1.27,7.31a1.49,1.49,0,0,1-.25.85.94.94,0,0,1-.71.21.91.91,0,0,1-.68-.21,1.49,1.49,0,0,1-.25-.85c0-.43,0-1.22,0-2.37s0-1.93,0-2.36a1.49,1.49,0,0,1,.25-.85.91.91,0,0,1,.68-.21.94.94,0,0,1,.71.21,1.49,1.49,0,0,1,.25.85c0,.43,0,1.22,0,2.36S89.76,56.26,89.73,56.69Z"/><path d="M99.18,49.38a2.4,2.4,0,0,0-2.6-.13,1.66,1.66,0,0,0-.65,1.1h-.16l-.09-1.25H93.49V63.57h2.32V58.4H96a1.65,1.65,0,0,0,1.8,1.32,2,2,0,0,0,1.46-.49,2.91,2.91,0,0,0,.68-1.62,22.45,22.45,0,0,0,.18-3.29,21.31,21.31,0,0,0-.2-3.35A2.81,2.81,0,0,0,99.18,49.38Zm-1.47,7.24a1.46,1.46,0,0,1-.24.82,1,1,0,0,1-.68.19.81.81,0,0,1-.59-.2,1.43,1.43,0,0,1-.31-.77,18.08,18.08,0,0,1-.08-2.34c0-.56,0-1,0-1.48a5.73,5.73,0,0,1,.07-1,1,1,0,0,1,.3-.66.9.9,0,0,1,.6-.18.94.94,0,0,1,.68.19,1.43,1.43,0,0,1,.24.82c0,.42.06,1.19.06,2.29S97.75,56.2,97.71,56.62Z"/><path d="M107.17,49.38a2.39,2.39,0,0,0-2.59-.13,1.63,1.63,0,0,0-.66,1.1h-.16l-.08-1.25h-2.19V63.57h2.31V58.4H104a1.64,1.64,0,0,0,1.8,1.32,2,2,0,0,0,1.45-.49,2.84,2.84,0,0,0,.68-1.62,22.17,22.17,0,0,0,.19-3.29,19.93,19.93,0,0,0-.21-3.35A2.74,2.74,0,0,0,107.17,49.38Zm-1.46,7.24a1.45,1.45,0,0,1-.25.82,1,1,0,0,1-.67.19.85.85,0,0,1-.6-.2,1.43,1.43,0,0,1-.31-.77,20.27,20.27,0,0,1-.08-2.34c0-.56,0-1,0-1.48a7,7,0,0,1,.07-1,1.1,1.1,0,0,1,.3-.66.92.92,0,0,1,.61-.18.91.91,0,0,1,.67.19,1.42,1.42,0,0,1,.25.82c0,.42.06,1.19.06,2.29S105.75,56.2,105.71,56.62Z"/><rect x="109.46" y="44.32" width="2.36" height="2.32"/><rect x="109.48" y="49.1" width="2.32" height="10.46"/><path d="M119.16,49.29a2,2,0,0,0-1.32-.36,1.88,1.88,0,0,0-2,1.44h-.16l-.08-1.27H113.4V59.55h2.31V54.3c0-1,0-1.74,0-2.14a1.74,1.74,0,0,1,.24-.87.79.79,0,0,1,.68-.27,1,1,0,0,1,.63.16,1.07,1.07,0,0,1,.23.67c0,.35,0,1,0,1.86v5.84h2.31V52.6a12.08,12.08,0,0,0-.15-2.18A1.93,1.93,0,0,0,119.16,49.29Z"/><path d="M125.63,49.1l-.08,1.25h-.14a1.68,1.68,0,0,0-.68-1.1,2.09,2.09,0,0,0-1.15-.32,2.14,2.14,0,0,0-1.44.44,2.71,2.71,0,0,0-.71,1.56,19.31,19.31,0,0,0-.2,3.27,20.18,20.18,0,0,0,.19,3.23,3,3,0,0,0,.68,1.6,2.38,2.38,0,0,0,2.64.15,1.77,1.77,0,0,0,.63-1h.14V59a12.69,12.69,0,0,1-.09,1.84,1,1,0,0,1-.44.73,2.53,2.53,0,0,1-1.17.2c-1,0-1.65,0-2.09,0v1.83a18.6,18.6,0,0,0,2.62.16,3.84,3.84,0,0,0,2.34-.56,2.58,2.58,0,0,0,.94-1.65,18.47,18.47,0,0,0,.21-3.24V49.1Zm-.14,6.55a6.48,6.48,0,0,1-.08,1,1.2,1.2,0,0,1-.28.65.91.91,0,0,1-.6.17,1,1,0,0,1-.68-.17,1.49,1.49,0,0,1-.25-.81c0-.43-.06-1.17-.06-2.24s0-1.78.06-2.2a1.33,1.33,0,0,1,.26-.8,1,1,0,0,1,.67-.18.82.82,0,0,1,.61.21,1.44,1.44,0,0,1,.29.78,18,18,0,0,1,.08,2.19C125.51,54.75,125.5,55.23,125.49,55.65Z"/></svg>