<svg xmlns="http://www.w3.org/2000/svg" viewBox="0 0 64 64"><path d="M37.09,19.13a5,5,0,0,0-5.09,5v7a5.1,5.1,0,0,0,10.19,0v-7A5,5,0,0,0,37.09,19.13Z" style="fill:none"/><path d="M52,19.13a5,5,0,0,0-5.1,5v7a5.1,5.1,0,0,0,10.19,0v-7A5,5,0,0,0,52,19.13Z" style="fill:none"/><path d="M40,0c-13.2,0-24,10.5-24,23.39v9.25a8,8,0,0,1-8,7.84,7.91,7.91,0,0,1-8-7.57C.14,50.05,14.43,64,32,64s32-14,32-31.23V23.39C64,10.5,53.24,0,40,0Zm2.16,31.06a5.1,5.1,0,0,1-10.19,0v-7a5.1,5.1,0,0,1,10.19,0Zm14.93,0a5.1,5.1,0,0,1-10.19,0v-7a5.1,5.1,0,0,1,10.19,0Z"/></svg>