<?xml version="1.0" encoding="utf-8"?>
<!-- Generator: Adobe Illustrator 24.1.2, SVG Export Plug-In . SVG Version: 6.00 Build 0)  -->
<svg version="1.2" baseProfile="tiny" id="Layer_1" xmlns="http://www.w3.org/2000/svg" xmlns:xlink="http://www.w3.org/1999/xlink"
	 x="0px" y="0px" viewBox="0 0 240 120" overflow="visible" xml:space="preserve">
<g>
	<path fill="#FFFFFF" d="M125.2,6.7v22c0,0.9,1.2,1.3,3.6,1.3c0.8,0,1.3-0.2,1.4-0.5c0-0.1,0-0.4,0-0.9l0-14.7l-0.3-7.3l4,0
		c1.2,0,1.7-1.1,1.7-3.2c0-0.7-0.7-1.1-2.1-1.1h-13.1c-0.8,0-1.2,0.7-1.2,2.1c0,0.9,0.1,1.5,0.3,1.8c0.2,0.3,0.5,0.4,1.1,0.5H125.2z
		"/>
	<path fill="#FFFFFF" d="M141.5,29.8c0,0,0-0.1,0-0.3V15.8c1.4-0.9,2.6-1.3,3.5-1.3c0.4,0,0.6,1.3,0.6,4l0,10.9
		c0,0.1,0.4,0.3,1.3,0.4c0.8,0.1,1.7,0.2,2.5,0.2c0.8,0,1.3-0.1,1.4-0.3c0,0,0-0.1,0-0.3V18.6c0-2.8-0.4-4.7-1.2-5.8
		c-0.8-1.1-2.1-1.7-3.9-1.7c-0.9,0-2.3,0.6-4.1,1.8l-0.6-10.4c0-0.2-0.3-0.3-1-0.4c-0.6-0.1-1.4-0.2-2.2-0.2c-0.9,0-1.3,0.2-1.3,0.6
		v27.1c0,0.1,0.4,0.3,1.3,0.4c0.9,0.1,1.7,0.2,2.5,0.2C141,30.1,141.4,30,141.5,29.8z"/>
	<path fill="#FFFFFF" d="M158.5,30.1c3.4,0,5.6-0.2,6.6-0.6c0.4-0.1,0.6-0.6,0.6-1.5c0-0.9-0.1-1.5-0.2-1.7
		c-0.1-0.2-0.2-0.3-0.4-0.3c0,0-0.1,0-0.1,0c-1.2,0.3-3.3,0.5-6.4,0.5c-0.5,0-0.8-0.1-1-0.3c-0.4-0.4-0.6-2-0.6-4.8h5.5
		c0.8,0,1.5-0.1,2-0.2c0.6-0.1,0.8-0.3,0.8-0.4s0-0.3,0-0.4c0-2.5-0.2-4.5-0.6-5.8c-0.4-1.4-1.1-2.3-2-2.8c-0.9-0.5-2.3-0.8-4.1-0.8
		c-1.8,0-3.2,0.2-4.1,0.7c-0.9,0.5-1.6,1.4-2.1,2.8c-0.5,1.4-0.7,3.3-0.7,5.9c0,3.6,0.5,6.1,1.5,7.5
		C154.1,29.4,155.9,30.1,158.5,30.1z M156.8,15.8c0-0.4,0.3-0.8,0.8-1c0.5-0.2,1.2-0.4,2-0.4c0.5,0,0.7,1.4,0.8,4.2h-3.6V15.8z"/>
	<path fill="#FFFFFF" d="M131.1,53.9c-1.8-0.8-3.1-1.6-4-2.4c-0.9-0.8-1.3-1.6-1.3-2.6c0-1,0.3-1.7,0.8-2.2s1.1-0.8,1.9-0.8
		s1.7,0.2,2.8,0.6s1.7,0.6,2,0.6s0.4,0,0.5-0.1c0.2-0.2,0.6-0.9,1-2.2c0-0.3,0-0.5,0.1-0.6c0-0.4-0.3-0.7-1.2-1
		c-1.6-0.8-3.2-1.2-4.9-1.2c-2.7,0-4.8,0.6-6.2,1.9c-1.4,1.2-2.1,3.2-2.1,5.9c0,1.5,0.6,3,1.8,4.4c1.2,1.4,2.7,2.6,4.3,3.5
		c1.6,0.9,2.8,1.6,3.5,2.3c0.7,0.6,1.1,1.4,1.1,2.4c0,1-0.2,1.8-0.6,2.4c-0.4,0.6-1.3,0.9-2.6,0.9s-2.9-0.7-4.7-2.1
		c-0.4-0.2-0.7-0.3-0.8-0.3s-0.3,0-0.5,0.1c-0.2,0-0.6,0.4-1.1,0.9c-0.6,0.6-0.8,1-0.8,1.3s0.3,0.8,0.8,1.4c2,2.1,4.8,3.2,8.5,3.2
		c5,0,7.5-3,7.5-8.9c0-1.8-0.5-3.2-1.4-4.2S133,54.9,131.1,53.9z"/>
	<path fill="#FFFFFF" d="M147.2,51.1c-1,0-2.5,0.7-4.5,2l-0.7-1.4c-0.2-0.4-0.9-0.6-2-0.6c-1.1,0-1.7,0.2-1.7,0.6v25.9
		c0,0.1,0.4,0.3,1.1,0.4c0.7,0.1,1.5,0.2,2.3,0.2s1.2-0.1,1.4-0.3c0,0,0-0.1,0-0.3v-7.5h1.7c2.9,0,4.9-0.6,5.9-1.9
		c1-1.3,1.6-3.7,1.6-7.3c0-3.6-0.4-6.1-1.2-7.6S148.9,51.1,147.2,51.1z M146.6,65.5c-0.3,0.7-0.9,1.1-1.8,1.1h-1.7V55.8
		c1.4-0.9,2.6-1.3,3.5-1.3c0.3,0,0.5,0.6,0.5,1.9c0,0.7,0,1.4,0.1,1.9c0,0.6,0,1.7,0,3.4C147.1,63.6,147,64.8,146.6,65.5z"/>
	<path fill="#FFFFFF" d="M155.7,47c1.7,0,2.6-0.9,2.6-2.6s-0.9-2.6-2.6-2.6c-1.7,0-2.6,0.9-2.6,2.6S154,47,155.7,47z"/>
	<path fill="#FFFFFF" d="M154.6,69.9c0.8,0.1,1.5,0.2,2.3,0.2s1.2-0.1,1.4-0.3c0,0,0-0.1,0-0.3V51.6c0-0.1-0.4-0.3-1.2-0.4
		c-0.8-0.1-1.6-0.2-2.4-0.2s-1.3,0.2-1.3,0.6v17.9C153.5,69.6,153.9,69.8,154.6,69.9z"/>
	<path fill="#FFFFFF" d="M170.9,55.4c0.2-0.4,0.5-1.3,0.8-2.9l-0.3-0.3c-0.2-0.2-0.6-0.5-1.1-0.7s-1.1-0.4-1.7-0.4s-1.9,0.7-3.9,2
		l-0.7-1.4v-0.1c-0.2-0.4-0.8-0.6-1.9-0.6c-1.1,0-1.6,0.2-1.6,0.6v17.9c0,0.1,0.3,0.3,1,0.4c0.7,0.1,1.4,0.2,2.2,0.2
		s1.2-0.1,1.3-0.3c0,0,0.1-0.1,0.1-0.3V56.3c1.2-0.7,2-1.1,2.4-1.1c0.4,0,0.9,0.1,1.4,0.4s0.9,0.4,1.2,0.4S170.7,55.7,170.9,55.4z"
		/>
	<path fill="#FFFFFF" d="M173.9,51.1c-0.9,0-1.3,0.2-1.3,0.6v17.9c0,0.1,0.4,0.3,1.2,0.4c0.8,0.1,1.5,0.2,2.3,0.2s1.2-0.1,1.4-0.3
		c0,0,0-0.1,0-0.3V51.6c0-0.1-0.4-0.3-1.2-0.4C175.6,51.1,174.8,51.1,173.9,51.1z"/>
	<path fill="#FFFFFF" d="M174.8,47c1.7,0,2.6-0.9,2.6-2.6s-0.9-2.6-2.6-2.6c-1.7,0-2.6,0.9-2.6,2.6S173.1,47,174.8,47z"/>
	<path fill="#FFFFFF" d="M178.4,54.5h2.9v12.1L183,70c0.2,0.4,0.9,0.6,1.9,0.6s1.7-0.1,1.8-0.3c0,0,0-0.1,0-0.3v0l-0.6-4.1V54.5h3.5
		c0.4,0,0.6-0.5,0.6-1.4c0-1-0.2-1.4-0.6-1.4h-3.5c-0.2-1.3-0.4-2.4-0.6-3.3c-0.2-0.9-0.4-1.3-0.6-1.3c-0.8,0-1.4,0.2-1.7,0.5
		l-2,4.1l-2.9,0.6c-0.4,0.1-0.5,0.6-0.5,1.7c0,0.2,0,0.3,0.1,0.5C177.9,54.5,178.1,54.5,178.4,54.5z"/>
	<path fill="#FFFFFF" d="M211.5,68c1-1.4,1.5-3.9,1.5-7.5c0-2.6-0.2-4.6-0.7-5.9c-0.5-1.3-1.2-2.3-2.2-2.8c-1-0.5-2.4-0.7-4.4-0.7
		c-1.9,0-3.4,0.2-4.4,0.7c-1,0.5-1.7,1.4-2.2,2.8c-0.5,1.3-0.7,3.3-0.7,5.9c0,3.6,0.5,6.1,1.5,7.5s2.9,2.1,5.7,2.1
		C208.6,70.1,210.5,69.4,211.5,68z M207.6,65c-0.1,0.5-0.3,0.9-0.5,1c-0.5,0.3-1.3,0.5-2.3,0.5c-0.8,0-1.2-2-1.2-6
		c0-2.7,0.2-4.3,0.5-5c0.3-0.7,1.2-1,2.7-1c0.8,0,1.2,2,1.2,6C207.9,62.5,207.8,64,207.6,65z"/>
	<path fill="#FFFFFF" d="M225.6,53.1c0-1-0.2-1.4-0.6-1.4h-3.5c0-2.3,0.1-3.9,0.4-4.8c0.3-0.9,0.9-1.4,1.9-1.4c1,0,1.8,0.2,2.5,0.5
		l1.3,0.5c0,0,0,0,0.1,0.1c0.1,0,0.2,0,0.3-0.1c0.1-0.1,0.2-0.3,0.4-0.6c0.1-0.3,0.2-0.7,0.3-1c0.1-0.4,0.1-0.7,0.1-1
		c0-0.3-0.1-0.5-0.3-0.6h0c-1.1-0.8-2.6-1.2-4.5-1.2c-2.9,0-4.9,0.7-5.9,2s-1.5,3.9-1.5,7.8l-2.9,0.6c-0.4,0.1-0.5,0.6-0.5,1.7
		c0,0.2,0,0.3,0.1,0.5s0.2,0.2,0.5,0.2h2.9v23c0,0.1,0.4,0.3,1.2,0.4c0.8,0.1,1.6,0.2,2.4,0.2s1.3-0.1,1.4-0.3c0,0,0.1-0.1,0.1-0.3
		v-23h3.2C225.4,54.5,225.6,54,225.6,53.1z"/>
	<path fill="#FFFFFF" d="M131.1,93.9c-1.8-0.8-3.1-1.7-4-2.4c-0.9-0.8-1.3-1.7-1.3-2.6s0.3-1.7,0.8-2.2c0.5-0.5,1.1-0.8,1.9-0.8
		s1.7,0.2,2.8,0.6c1.1,0.4,1.7,0.6,2,0.6s0.4,0,0.5-0.1c0.2-0.2,0.6-0.9,1-2.2c0-0.3,0-0.5,0.1-0.6c0-0.4-0.3-0.7-1.2-1
		c-1.6-0.8-3.2-1.2-4.9-1.2c-2.7,0-4.8,0.6-6.2,1.9c-1.4,1.2-2.1,3.2-2.1,5.9c0,1.5,0.6,3,1.8,4.4c1.2,1.4,2.7,2.6,4.3,3.5
		c1.6,0.9,2.8,1.6,3.5,2.3c0.7,0.6,1.1,1.4,1.1,2.4s-0.2,1.8-0.6,2.4c-0.4,0.6-1.3,0.9-2.6,0.9s-2.9-0.7-4.7-2.1
		c-0.4-0.2-0.7-0.3-0.8-0.3s-0.3,0-0.5,0.1c-0.2,0-0.6,0.4-1.1,0.9c-0.6,0.6-0.8,1-0.8,1.3s0.3,0.8,0.8,1.4c2,2.1,4.8,3.2,8.5,3.2
		c5,0,7.5-3,7.5-8.9c0-1.8-0.5-3.2-1.4-4.2C134.4,95.9,133,94.9,131.1,93.9z"/>
	<path fill="#FFFFFF" d="M147.5,91.1c-0.9,0-2.3,0.6-4.1,1.8l-0.6-10.4c0-0.2-0.3-0.3-1-0.4c-0.6-0.1-1.4-0.2-2.2-0.2
		c-0.9,0-1.3,0.2-1.3,0.6v27.1c0,0.1,0.4,0.3,1.3,0.4c0.9,0.1,1.7,0.2,2.5,0.2c0.8,0,1.3-0.1,1.4-0.3c0,0,0-0.1,0-0.3V95.8
		c1.4-0.9,2.6-1.3,3.5-1.3c0.4,0,0.6,1.3,0.6,4l0,10.9c0,0.1,0.4,0.3,1.3,0.4c0.8,0.1,1.7,0.2,2.5,0.2c0.8,0,1.3-0.1,1.4-0.3
		c0,0,0-0.1,0-0.3V98.6c0-2.8-0.4-4.7-1.2-5.8C150.6,91.6,149.3,91.1,147.5,91.1z"/>
	<path fill="#FFFFFF" d="M165.1,91.8c-1-0.5-2.4-0.7-4.4-0.7s-3.4,0.2-4.4,0.7c-1,0.5-1.7,1.4-2.2,2.8c-0.5,1.3-0.7,3.3-0.7,5.9
		c0,3.6,0.5,6.1,1.5,7.5s2.9,2.1,5.7,2.1s4.6-0.7,5.7-2.1c1-1.4,1.5-3.9,1.5-7.5c0-2.6-0.2-4.6-0.7-5.9
		C166.8,93.2,166.1,92.3,165.1,91.8z M162.5,105c-0.1,0.5-0.3,0.9-0.5,1c-0.5,0.3-1.3,0.5-2.3,0.5c-0.8,0-1.2-2-1.2-6
		c0-2.7,0.2-4.3,0.5-5c0.3-0.7,1.2-1,2.7-1c0.8,0,1.2,2,1.2,6C162.7,102.5,162.6,104,162.5,105z"/>
	<path fill="#FFFFFF" d="M178.6,91.1c-1,0-2.5,0.7-4.5,2l-0.7-1.4c-0.2-0.4-0.9-0.6-2-0.6c-1.1,0-1.7,0.2-1.7,0.6v25.9
		c0,0.1,0.4,0.3,1.1,0.4s1.5,0.2,2.3,0.2c0.8,0,1.2-0.1,1.4-0.3c0,0,0-0.1,0-0.3v-7.5h1.7c2.9,0,4.9-0.6,5.9-1.9
		c1-1.3,1.6-3.7,1.6-7.3c0-3.6-0.4-6.1-1.2-7.6S180.4,91.1,178.6,91.1z M178.1,105.5c-0.3,0.7-0.9,1.1-1.8,1.1h-1.7V95.8
		c1.4-0.9,2.6-1.3,3.5-1.3c0.3,0,0.5,0.6,0.5,1.9c0,0.7,0,1.4,0.1,1.9c0,0.6,0,1.7,0,3.4S178.4,104.8,178.1,105.5z"/>
	<path fill="#FFFFFF" d="M193.8,91.1c-1,0-2.5,0.7-4.5,2l-0.7-1.4c-0.2-0.4-0.9-0.6-2-0.6s-1.7,0.2-1.7,0.6v25.9
		c0,0.1,0.4,0.3,1.1,0.4c0.7,0.1,1.5,0.2,2.3,0.2s1.2-0.1,1.4-0.3c0,0,0-0.1,0-0.3v-7.5h1.7c2.9,0,4.9-0.6,5.9-1.9s1.6-3.7,1.6-7.3
		c0-3.6-0.4-6.1-1.2-7.6S195.5,91.1,193.8,91.1z M193.2,105.5c-0.3,0.7-0.9,1.1-1.8,1.1h-1.7V95.8c1.4-0.9,2.6-1.3,3.5-1.3
		c0.3,0,0.5,0.6,0.5,1.9c0,0.7,0,1.4,0.1,1.9c0,0.6,0,1.7,0,3.4S193.6,104.8,193.2,105.5z"/>
	<path fill="#FFFFFF" d="M203.8,91.2c-0.8-0.1-1.6-0.2-2.4-0.2c-0.9,0-1.3,0.2-1.3,0.6v17.9c0,0.1,0.4,0.3,1.2,0.4
		c0.8,0.1,1.5,0.2,2.3,0.2s1.2-0.1,1.4-0.3c0,0,0-0.1,0-0.3V91.6C205,91.5,204.6,91.4,203.8,91.2z"/>
	<path fill="#FFFFFF" d="M202.3,87c1.7,0,2.6-0.9,2.6-2.6c0-1.7-0.9-2.6-2.6-2.6c-1.7,0-2.6,0.9-2.6,2.6
		C199.7,86.2,200.6,87,202.3,87z"/>
	<path fill="#FFFFFF" d="M216.3,91.1c-1,0-2.5,0.7-4.5,2l-0.7-1.4c0,0,0,0,0-0.1c-0.2-0.4-1.1-0.6-2.6-0.6c-1,0-1.4,0.2-1.4,0.6
		v17.9c0,0.1,0.4,0.3,1.3,0.4c0.9,0.1,1.7,0.2,2.5,0.2c0.8,0,1.3-0.1,1.4-0.3c0,0,0-0.1,0-0.3V95.8c1.4-0.9,2.6-1.3,3.5-1.3
		c0.4,0,0.6,1.3,0.6,4l0,10.9c0,0.1,0.4,0.3,1.3,0.4c0.8,0.1,1.7,0.2,2.5,0.2s1.3-0.1,1.4-0.3c0,0,0-0.1,0-0.3V98.6
		c0-2.8-0.4-4.7-1.2-5.8C219.4,91.6,218.1,91.1,216.3,91.1z"/>
	<path fill="#FFFFFF" d="M238,91.1h-7.8c-1.5,0-2.6,0.1-3.5,0.2c-0.8,0.2-1.6,0.5-2.2,1c-0.6,0.5-1,1.2-1.2,2.1
		c-0.2,0.9-0.3,2.2-0.3,3.9c0,1.7,0.3,3.2,0.8,4.3s1.3,2,2.5,2.5l-1.3,3.8c-0.1,0.4-0.2,0.8-0.2,1.1s0.1,0.6,0.5,0.9
		c0.3,0.2,1.2,0.4,2.7,0.4l3.1,0c0.8,0,1.4,0,1.7,0.1c0.3,0.1,0.4,0.5,0.4,1.3c0,0.8-0.2,1.2-0.5,1.4c-0.3,0.2-1.1,0.3-2.4,0.3
		c-1.3,0-3-0.1-5.2-0.4h0h0c-0.3,0-0.5,0.6-0.5,1.7c0,1.2,0.2,1.8,0.5,1.8c2,0.4,3.6,0.6,5,0.6c2.8,0,4.8-0.5,5.9-1.4
		c1.1-0.9,1.7-2.4,1.7-4.4c0-0.8,0-1.5-0.1-2c-0.1-0.5-0.2-0.9-0.5-1.3c-0.3-0.4-0.6-0.7-0.9-0.9s-0.9-0.4-1.7-0.5
		c-0.8-0.1-2.6-0.2-5.3-0.3l0.3-1.7h0.8c2.7,0,4.5-0.6,5.6-1.8c1.1-1.2,1.6-3.2,1.6-6c0-1.8-0.3-3.2-1-4.3l1.5-0.3l0.1,0
		c0.4-0.1,0.6-0.4,0.6-0.9C238.6,91.5,238.4,91.1,238,91.1z M232.3,100.4c0,0.5-0.2,0.9-0.5,1.2c-0.3,0.3-0.6,0.5-1,0.5
		c-0.3,0-0.8,0.1-1.4,0.1c-0.6,0-0.9-0.1-1.1-0.2c-0.1-0.1-0.3-0.5-0.4-1.2s-0.2-1.7-0.2-3.2s0.2-2.4,0.5-2.7s1.3-0.5,2.8-0.5
		c0.3,0,0.5,0,0.6,0.1c0.1,0.1,0.3,0.4,0.4,1c0.1,0.5,0.2,1.3,0.2,2.4S232.3,99.9,232.3,100.4z"/>
	<path fill="#FFFFFF" d="M72.3,1C48.8,1,29.6,20.4,29.6,44.1c0,1.7,0,3.2,0,4.6c0,5.8,0,7.6,0,7.5c0,1.4,0,3.1,0,5
		c0,8.1-6.5,14.5-14.3,14.5c-7.8,0-14.1-6.1-14.3-14C1.2,93.3,26.7,119,58,119c31.5,0,57-25.7,57-57.6V44.1
		C114.9,20.4,95.8,1,72.3,1z M76.1,58.3c0,5.1-4.1,9.2-9.1,9.2c-5,0-9.1-4.1-9.1-9.2V45.4c0-5.1,4.1-9.2,9.1-9.2s9.1,4.1,9.1,9.2
		V58.3z M102.7,58.3c0,5.1-4.1,9.2-9.1,9.2s-9.1-4.1-9.1-9.2V45.4c0-5.1,4.1-9.2,9.1-9.2c5,0,9.1,4.1,9.1,9.2V58.3z"/>
</g>
</svg>
