<svg xmlns="http://www.w3.org/2000/svg" viewBox="0 0 238.24 118.03"><path d="M160.88,18.75a28.84,28.84,0,0,0-.12-3.18,1.92,1.92,0,0,0-.48-1.24,1.88,1.88,0,0,0-1.2-.3,2,2,0,0,0-1.26.3,2,2,0,0,0-.52,1.3,27.88,27.88,0,0,0-.14,3.32h3.72Z" transform="translate(-1 -1)" style="fill:none"/><path d="M193.68,94.63a1.86,1.86,0,0,0-1.32-.36,1.8,1.8,0,0,0-1.18.34,2.11,2.11,0,0,0-.58,1.3,11.82,11.82,0,0,0-.14,1.9c0,.84,0,1.81,0,2.9a36.42,36.42,0,0,0,.16,4.56,2.72,2.72,0,0,0,.6,1.5,1.64,1.64,0,0,0,1.16.38,1.86,1.86,0,0,0,1.32-.36,2.79,2.79,0,0,0,.48-1.6c.08-.83.12-2.32.12-4.48s0-3.65-.12-4.48A2.79,2.79,0,0,0,193.68,94.63Z" transform="translate(-1 -1)" style="fill:none"/><path d="M177.44,94.63a1.86,1.86,0,0,0-1.32-.36,1.8,1.8,0,0,0-1.18.34,2.11,2.11,0,0,0-.58,1.3,11.82,11.82,0,0,0-.14,1.9c0,.84,0,1.81,0,2.9a36.42,36.42,0,0,0,.16,4.56,2.72,2.72,0,0,0,.6,1.5,1.64,1.64,0,0,0,1.16.38,1.86,1.86,0,0,0,1.32-.36,2.79,2.79,0,0,0,.48-1.6c.08-.83.12-2.32.12-4.48s0-3.65-.12-4.48A2.79,2.79,0,0,0,177.44,94.63Z" transform="translate(-1 -1)" style="fill:none"/><path d="M161.22,94.43a1.85,1.85,0,0,0-1.38-.4,1.79,1.79,0,0,0-1.34.4,2.93,2.93,0,0,0-.48,1.66c-.07.84-.1,2.38-.1,4.62s0,3.78.1,4.62a2.93,2.93,0,0,0,.48,1.66,1.79,1.79,0,0,0,1.34.4,1.85,1.85,0,0,0,1.38-.4,2.93,2.93,0,0,0,.48-1.66c.07-.84.1-2.38.1-4.62s0-3.78-.1-4.62A2.93,2.93,0,0,0,161.22,94.43Z" transform="translate(-1 -1)" style="fill:none"/><path d="M67,36.27A9.1,9.1,0,0,0,58,45.43V58.28a9.07,9.07,0,1,0,18.13,0V45.43A9.13,9.13,0,0,0,67,36.27Z" transform="translate(-1 -1)" style="fill:none"/><path d="M93.62,36.27a9.11,9.11,0,0,0-9.07,9.16V58.28a9.07,9.07,0,1,0,18.14,0V45.43A9.13,9.13,0,0,0,93.62,36.27Z" transform="translate(-1 -1)" style="fill:none"/><path d="M145.24,54.63a1.86,1.86,0,0,0-1.32-.36,1.8,1.8,0,0,0-1.18.34,2.11,2.11,0,0,0-.58,1.3,11.82,11.82,0,0,0-.14,1.9c0,.84,0,1.81,0,2.9a36.42,36.42,0,0,0,.16,4.56,2.72,2.72,0,0,0,.6,1.5,1.64,1.64,0,0,0,1.16.38,1.86,1.86,0,0,0,1.32-.36,2.79,2.79,0,0,0,.48-1.6c.08-.83.12-2.32.12-4.48s0-3.65-.12-4.48A2.79,2.79,0,0,0,145.24,54.63Z" transform="translate(-1 -1)" style="fill:none"/><path d="M206.78,54.43a1.85,1.85,0,0,0-1.38-.4,1.79,1.79,0,0,0-1.34.4,2.93,2.93,0,0,0-.48,1.66c-.07.84-.1,2.38-.1,4.62s0,3.78.1,4.62a2.93,2.93,0,0,0,.48,1.66,1.79,1.79,0,0,0,1.34.4,1.85,1.85,0,0,0,1.38-.4,2.93,2.93,0,0,0,.48-1.66c.07-.84.1-2.38.1-4.62s0-3.78-.1-4.62A2.93,2.93,0,0,0,206.78,54.43Z" transform="translate(-1 -1)" style="fill:none"/><path d="M234,94.67a1.63,1.63,0,0,0-1.2-.4,1.93,1.93,0,0,0-1.3.34,2.57,2.57,0,0,0-.5,1.56c-.08.81-.12,2.25-.12,4.3s0,3.53.12,4.36a2.68,2.68,0,0,0,.48,1.58,1.92,1.92,0,0,0,1.32.34,1.72,1.72,0,0,0,1.18-.34,2.25,2.25,0,0,0,.54-1.26,13.8,13.8,0,0,0,.16-1.86c0-.81,0-1.75,0-2.82a32.4,32.4,0,0,0-.16-4.28A2.74,2.74,0,0,0,234,94.67Z" transform="translate(-1 -1)" style="fill:none"/><polygon points="124.12 29.91 128.96 29.91 128.96 6.83 133.24 6.83 133.24 2.39 119.84 2.39 119.84 6.83 124.12 6.83 124.12 29.91"/><path d="M141.24,20.67c0-2,0-3.39.08-4.18a3.33,3.33,0,0,1,.46-1.7,1.54,1.54,0,0,1,1.34-.52,1.87,1.87,0,0,1,1.22.3,2.09,2.09,0,0,1,.44,1.32c.07.68.1,1.89.1,3.62v11.4h4.52V17.35a23.07,23.07,0,0,0-.3-4.26,3.71,3.71,0,0,0-1.14-2.2,3.91,3.91,0,0,0-2.56-.7q-3.08,0-3.84,2.64h-.32V1.19h-4.52V30.91h4.52Z" transform="translate(-1 -1)"/><path d="M154.82,30.19a7.74,7.74,0,0,0,4.5,1,27.35,27.35,0,0,0,3-.16,17.64,17.64,0,0,0,2.44-.4V27.11c-2,.19-3.47.28-4.4.28a4.68,4.68,0,0,1-2.18-.36,1.87,1.87,0,0,1-.8-1.38,23.86,23.86,0,0,1-.18-3.58h8V20.71a49.5,49.5,0,0,0-.3-6.5,4.52,4.52,0,0,0-1.56-3,6.7,6.7,0,0,0-4.14-1,7,7,0,0,0-4.34,1.08A5,5,0,0,0,153,14.45a38.77,38.77,0,0,0-.38,6.3,38.77,38.77,0,0,0,.38,6.3A4.71,4.71,0,0,0,154.82,30.19Zm2.48-14.56a2,2,0,0,1,.52-1.3,2,2,0,0,1,1.26-.3,1.88,1.88,0,0,1,1.2.3,1.92,1.92,0,0,1,.48,1.24,28.84,28.84,0,0,1,.12,3.18V19h-3.72A27.88,27.88,0,0,1,157.3,15.63Z" transform="translate(-1 -1)"/><path d="M132.7,55.91a5.08,5.08,0,0,0-2.06-.84l-2.76-.64a2.36,2.36,0,0,1-1-.44,1.52,1.52,0,0,1-.42-.9,13.76,13.76,0,0,1-.1-2,12.32,12.32,0,0,1,.1-1.84,2.24,2.24,0,0,1,.42-1,1.81,1.81,0,0,1,1-.58,8.43,8.43,0,0,1,2-.18c.8,0,1.55,0,2.26.1s1.19.13,1.46.18v-4a11.38,11.38,0,0,0-1.86-.4,20.17,20.17,0,0,0-3.26-.24,9.47,9.47,0,0,0-3.86.68,4.6,4.6,0,0,0-2.3,2.46,12.66,12.66,0,0,0-.8,5,18,18,0,0,0,.56,5.12,2.75,2.75,0,0,0,2.08,2.08l3.2.68a4.11,4.11,0,0,1,1.6.58,1.69,1.69,0,0,1,.58,1.06,15.32,15.32,0,0,1,.14,2.48,5.18,5.18,0,0,1-.56,3,1.76,1.76,0,0,1-1,.54,8.24,8.24,0,0,1-1.72.14c-1.07,0-2.57-.09-4.52-.28v4a18.53,18.53,0,0,0,2.8.5,28,28,0,0,0,3,.18,9,9,0,0,0,3.82-.68A4.45,4.45,0,0,0,133.7,68a16.24,16.24,0,0,0,.74-5.56A16.37,16.37,0,0,0,134,58,4,4,0,0,0,132.7,55.91Z" transform="translate(-1 -1)"/><path d="M148.58,51.07a4.68,4.68,0,0,0-5.06-.26A3.17,3.17,0,0,0,142.24,53h-.32l-.16-2.44h-4.28V78.75H142V68.67h.32a3.22,3.22,0,0,0,3.52,2.56,3.89,3.89,0,0,0,2.84-.94A5.64,5.64,0,0,0,150,67.13a43,43,0,0,0,.36-6.42,39.38,39.38,0,0,0-.4-6.54A5.44,5.44,0,0,0,148.58,51.07Zm-2.86,14.12a2.79,2.79,0,0,1-.48,1.6,1.86,1.86,0,0,1-1.32.36,1.64,1.64,0,0,1-1.16-.38,2.72,2.72,0,0,1-.6-1.5,36.42,36.42,0,0,1-.16-4.56c0-1.09,0-2.06,0-2.9a11.82,11.82,0,0,1,.14-1.9,2.11,2.11,0,0,1,.58-1.3,1.8,1.8,0,0,1,1.18-.34,1.86,1.86,0,0,1,1.32.36,2.79,2.79,0,0,1,.48,1.6c.08.83.12,2.32.12,4.48S145.8,64.36,145.72,65.19Z" transform="translate(-1 -1)"/><rect x="152.72" y="49.51" width="4.52" height="20.4"/><rect x="152.68" y="40.19" width="4.6" height="4.52"/><path d="M170.84,50.19a4,4,0,0,0-2.6.8,5.45,5.45,0,0,0-1.48,2.92h-.32l-.16-3.4H162v20.4h4.52V61c0-2.24.35-3.79,1-4.66a3.94,3.94,0,0,1,3.28-1.3Z" transform="translate(-1 -1)"/><rect x="172.44" y="40.19" width="4.6" height="4.52"/><rect x="172.48" y="49.51" width="4.52" height="20.4"/><polygon points="186.28 69.91 186.28 53.35 189.04 53.35 189.04 49.51 186.28 49.51 186.28 43.59 181.76 43.59 181.76 49.51 179.72 49.51 179.72 53.35 181.76 53.35 181.76 69.91 186.28 69.91"/><path d="M211.88,60.71a39,39,0,0,0-.4-6.68,4.33,4.33,0,0,0-1.74-3,8.12,8.12,0,0,0-4.34-.88,8,8,0,0,0-4.3.88,4.36,4.36,0,0,0-1.74,3,39.07,39.07,0,0,0-.4,6.66,39.38,39.38,0,0,0,.4,6.7,4.26,4.26,0,0,0,1.74,3,8.25,8.25,0,0,0,4.3.86,8.34,8.34,0,0,0,4.34-.86,4.26,4.26,0,0,0,1.74-3A39.38,39.38,0,0,0,211.88,60.71Zm-4.62,4.62a2.93,2.93,0,0,1-.48,1.66,1.85,1.85,0,0,1-1.38.4,1.79,1.79,0,0,1-1.34-.4,2.93,2.93,0,0,1-.48-1.66c-.07-.84-.1-2.38-.1-4.62s0-3.78.1-4.62a2.93,2.93,0,0,1,.48-1.66,1.79,1.79,0,0,1,1.34-.4,1.85,1.85,0,0,1,1.38.4,2.93,2.93,0,0,1,.48,1.66c.07.84.1,2.38.1,4.62S207.33,64.49,207.26,65.33Z" transform="translate(-1 -1)"/><path d="M216.8,43.69a17.68,17.68,0,0,0-.56,5.3v1.52h-2v3.84h2V70.91h4.52V54.35h2.8V50.51h-2.8V47.83a8.48,8.48,0,0,1,.2-2.2,1.19,1.19,0,0,1,.74-.84,6.09,6.09,0,0,1,1.86-.2v-3.4a17.19,17.19,0,0,0-4.78.46A3.06,3.06,0,0,0,216.8,43.69Z" transform="translate(-1 -1)"/><path d="M132.7,95.91a5.08,5.08,0,0,0-2.06-.84l-2.76-.64a2.36,2.36,0,0,1-1-.44,1.52,1.52,0,0,1-.42-.9,13.76,13.76,0,0,1-.1-2,12.32,12.32,0,0,1,.1-1.84,2.24,2.24,0,0,1,.42-1,1.81,1.81,0,0,1,1-.58,8.43,8.43,0,0,1,2-.18c.8,0,1.55,0,2.26.1s1.19.13,1.46.18v-4a11.38,11.38,0,0,0-1.86-.4,20.17,20.17,0,0,0-3.26-.24,9.47,9.47,0,0,0-3.86.68,4.6,4.6,0,0,0-2.3,2.46,12.66,12.66,0,0,0-.8,5,18,18,0,0,0,.56,5.12,2.75,2.75,0,0,0,2.08,2.08l3.2.68a4.11,4.11,0,0,1,1.6.58,1.69,1.69,0,0,1,.58,1.06,15.32,15.32,0,0,1,.14,2.48,5.18,5.18,0,0,1-.56,3,1.76,1.76,0,0,1-1,.54,8.24,8.24,0,0,1-1.72.14c-1.07,0-2.57-.09-4.52-.28v4a18.53,18.53,0,0,0,2.8.5,28,28,0,0,0,3,.18,9,9,0,0,0,3.82-.68,4.45,4.45,0,0,0,2.16-2.6,16.24,16.24,0,0,0,.74-5.56A16.37,16.37,0,0,0,134,98,4,4,0,0,0,132.7,95.91Z" transform="translate(-1 -1)"/><path d="M148.72,90.89a3.91,3.91,0,0,0-2.56-.7q-3.07,0-3.84,2.64H142V81.19h-4.52v29.72H142V100.67c0-2,0-3.39.08-4.18a3.33,3.33,0,0,1,.46-1.7,1.54,1.54,0,0,1,1.34-.52,1.87,1.87,0,0,1,1.22.3,2.09,2.09,0,0,1,.44,1.32c.07.68.1,1.89.1,3.62v11.4h4.52V97.35a23.07,23.07,0,0,0-.3-4.26A3.71,3.71,0,0,0,148.72,90.89Z" transform="translate(-1 -1)"/><path d="M164.18,91.07a8.12,8.12,0,0,0-4.34-.88,8,8,0,0,0-4.3.88,4.36,4.36,0,0,0-1.74,3,39.07,39.07,0,0,0-.4,6.66,39.38,39.38,0,0,0,.4,6.7,4.26,4.26,0,0,0,1.74,3,8.25,8.25,0,0,0,4.3.86,8.34,8.34,0,0,0,4.34-.86,4.26,4.26,0,0,0,1.74-3,39.38,39.38,0,0,0,.4-6.7,39,39,0,0,0-.4-6.68A4.33,4.33,0,0,0,164.18,91.07Zm-2.48,14.26a2.93,2.93,0,0,1-.48,1.66,1.85,1.85,0,0,1-1.38.4,1.79,1.79,0,0,1-1.34-.4,2.93,2.93,0,0,1-.48-1.66c-.07-.84-.1-2.38-.1-4.62s0-3.78.1-4.62a2.93,2.93,0,0,1,.48-1.66,1.79,1.79,0,0,1,1.34-.4,1.85,1.85,0,0,1,1.38.4,2.93,2.93,0,0,1,.48,1.66c.07.84.1,2.38.1,4.62S161.77,104.49,161.7,105.33Z" transform="translate(-1 -1)"/><path d="M180.78,91.07a4.68,4.68,0,0,0-5.06-.26A3.17,3.17,0,0,0,174.44,93h-.32L174,90.51h-4.28v28.24h4.52V108.67h.32a3.22,3.22,0,0,0,3.52,2.56,3.89,3.89,0,0,0,2.84-.94,5.64,5.64,0,0,0,1.32-3.16,43,43,0,0,0,.36-6.42,39.38,39.38,0,0,0-.4-6.54A5.44,5.44,0,0,0,180.78,91.07Zm-2.86,14.12a2.79,2.79,0,0,1-.48,1.6,1.86,1.86,0,0,1-1.32.36,1.64,1.64,0,0,1-1.16-.38,2.72,2.72,0,0,1-.6-1.5,36.42,36.42,0,0,1-.16-4.56c0-1.09,0-2.06,0-2.9a11.82,11.82,0,0,1,.14-1.9,2.11,2.11,0,0,1,.58-1.3,1.8,1.8,0,0,1,1.18-.34,1.86,1.86,0,0,1,1.32.36,2.79,2.79,0,0,1,.48,1.6c.08.83.12,2.32.12,4.48S178,104.36,177.92,105.19Z" transform="translate(-1 -1)"/><path d="M197,91.07a4.68,4.68,0,0,0-5.06-.26A3.17,3.17,0,0,0,190.68,93h-.32l-.16-2.44h-4.28v28.24h4.52V108.67h.32a3.22,3.22,0,0,0,3.52,2.56,3.89,3.89,0,0,0,2.84-.94,5.64,5.64,0,0,0,1.32-3.16,43,43,0,0,0,.36-6.42,39.38,39.38,0,0,0-.4-6.54A5.44,5.44,0,0,0,197,91.07Zm-2.86,14.12a2.79,2.79,0,0,1-.48,1.6,1.86,1.86,0,0,1-1.32.36,1.64,1.64,0,0,1-1.16-.38,2.72,2.72,0,0,1-.6-1.5,36.42,36.42,0,0,1-.16-4.56c0-1.09,0-2.06,0-2.9a11.82,11.82,0,0,1,.14-1.9,2.11,2.11,0,0,1,.58-1.3,1.8,1.8,0,0,1,1.18-.34,1.86,1.86,0,0,1,1.32.36,2.79,2.79,0,0,1,.48,1.6c.08.83.12,2.32.12,4.48S194.24,104.36,194.16,105.19Z" transform="translate(-1 -1)"/><rect x="201.12" y="80.19" width="4.6" height="4.52"/><rect x="201.16" y="89.51" width="4.52" height="20.4"/><path d="M221.68,90.89a3.91,3.91,0,0,0-2.56-.7A3.65,3.65,0,0,0,215.2,93h-.32l-.16-2.48h-4.28v20.4H215V100.67c0-2,0-3.39.08-4.18a3.33,3.33,0,0,1,.46-1.7,1.54,1.54,0,0,1,1.34-.52,1.87,1.87,0,0,1,1.22.3,2.09,2.09,0,0,1,.44,1.32c.07.68.1,1.89.1,3.62v11.4h4.52V97.35a23.07,23.07,0,0,0-.3-4.26A3.71,3.71,0,0,0,221.68,90.89Z" transform="translate(-1 -1)"/><path d="M235,90.51,234.8,93h-.28a3.31,3.31,0,0,0-1.32-2.14,4.07,4.07,0,0,0-2.24-.62,4.15,4.15,0,0,0-2.82.86,5.26,5.26,0,0,0-1.38,3,37.62,37.62,0,0,0-.4,6.38,39.63,39.63,0,0,0,.38,6.3,5.74,5.74,0,0,0,1.32,3.12,4.65,4.65,0,0,0,5.16.3,3.51,3.51,0,0,0,1.22-1.92h.28v1.52a24.27,24.27,0,0,1-.18,3.6,1.88,1.88,0,0,1-.86,1.42,5,5,0,0,1-2.28.38c-1.87,0-3.23,0-4.08,0v3.56a37,37,0,0,0,5.12.32,7.57,7.57,0,0,0,4.56-1.1,5.06,5.06,0,0,0,1.84-3.22,36.5,36.5,0,0,0,.4-6.32V90.51Zm-.28,12.78a13.8,13.8,0,0,1-.16,1.86,2.25,2.25,0,0,1-.54,1.26,1.72,1.72,0,0,1-1.18.34,1.92,1.92,0,0,1-1.32-.34,2.68,2.68,0,0,1-.48-1.58c-.08-.83-.12-2.28-.12-4.36s0-3.49.12-4.3a2.57,2.57,0,0,1,.5-1.56,1.93,1.93,0,0,1,1.3-.34,1.63,1.63,0,0,1,1.2.4,2.74,2.74,0,0,1,.56,1.52,32.4,32.4,0,0,1,.16,4.28C234.72,101.54,234.71,102.48,234.68,103.29Z" transform="translate(-1 -1)"/><path d="M72.27,1C48.75,1,29.6,20.35,29.6,44.12V61.18A14.3,14.3,0,0,1,1,61.67C1.24,93.28,26.7,119,58,119c31.51,0,57-25.72,57-57.57V44.12C114.93,20.35,95.78,1,72.27,1ZM76.1,58.28a9.07,9.07,0,1,1-18.13,0V45.43a9.07,9.07,0,1,1,18.13,0Zm26.59,0a9.07,9.07,0,1,1-18.14,0V45.43a9.07,9.07,0,1,1,18.14,0Z" transform="translate(-1 -1)"/></svg>